<svg xmlns="http://www.w3.org/2000/svg" width="115" height="29" viewBox="0 0 115 29">
    <g fill="#1B9ED9" fill-rule="nonzero">
        <path d="M7.468 23.537l-5.393-2.61a.5.5 0 0 1-.2-.727l2.7-4a.509.509 0 0 1 .891.09l2.7 6.606a.5.5 0 0 1-.698.64zm18.531-1.187V8.827a.506.506 0 0 0-.74-.445l-11.983 6.164a.5.5 0 0 0-.273.444v13.523a.506.506 0 0 0 .74.445l11.987-6.164a.5.5 0 0 0 .269-.444zm-3.506-5.22a6.164 6.164 0 0 1-3 5.029c-1.653.85-2.994-.021-2.993-1.95a6.164 6.164 0 0 1 3-5.03c1.653-.85 2.993.025 2.993 1.95zm-9.98-4.381l11.877-6.08a.5.5 0 0 0-.01-.894L12.605.054a.511.511 0 0 0-.456 0L.272 6.132a.5.5 0 0 0 .01.895l11.78 5.72c.142.07.309.07.451 0v.002zm-.036-9.26l5.018 2.438a.5.5 0 0 1 .009.895l-4.868 2.492a.514.514 0 0 1-.457 0L7.161 6.877a.5.5 0 0 1-.009-.895L12.02 3.49a.513.513 0 0 1 .457-.001zM36.567 18.265c-.13-.087-.262-.261-.174-.48l.392-.829c.088-.174.35-.261.568-.13.523.305 1.178.654 2.225.654.742 0 1.178-.35 1.178-.873 0-.61-.698-1.003-1.92-1.57-1.396-.612-2.443-1.353-2.443-2.837 0-1.135.785-2.444 2.967-2.444 1.265 0 2.182.393 2.618.655.218.174.306.436.175.654l-.306.611c-.13.262-.392.262-.567.175-.61-.262-1.222-.436-1.92-.436-.785 0-1.135.392-1.135.785 0 .567.655.916 1.528 1.31 1.658.697 2.923 1.308 2.923 2.966 0 1.397-1.221 2.619-3.229 2.619-1.352.087-2.356-.48-2.88-.83zM44.815 10.367c0-.218.174-.436.436-.436h.436c.218 0 .35.087.393.262l.262.785c.174-.218 1.134-1.265 2.88-1.265 1.309 0 2.094.523 2.749 1.44.262-.262 1.309-1.44 3.054-1.44 2.75 0 3.448 1.92 3.448 4.276v4.538a.437.437 0 0 1-.437.437h-1.09c-.262 0-.437-.175-.437-.437v-4.625c0-1.44-.567-2.313-1.789-2.313-1.353 0-2.007.916-2.182 1.047.044.175.087.742.087 1.222v4.67c0 .217-.174.436-.392.436h-1.135c-.262 0-.436-.175-.436-.437v-4.625c0-1.484-.524-2.313-1.79-2.313-1.352 0-2.05 1.004-2.137 1.31v5.628a.47.47 0 0 1-.437.437h-1.09a.437.437 0 0 1-.437-.437v-8.16h.044zM64.015 13.247c.916 0 1.832.262 1.832.262.044-1.44-.305-2.05-1.44-2.05-1.047 0-2.05.305-2.53.436-.262.043-.437-.131-.524-.393l-.175-.742c-.043-.305.087-.436.306-.524.174-.043 1.44-.523 3.098-.523 2.88 0 3.185 1.745 3.185 3.97v4.8a.47.47 0 0 1-.436.437h-.655c-.174 0-.261-.087-.392-.305l-.219-.611a3.886 3.886 0 0 1-2.792 1.134c-1.702 0-2.924-1.134-2.924-3.01.044-1.615 1.353-2.88 3.666-2.88zm-.262 4.32c.916 0 1.832-.654 2.094-1.09v-1.484c-.13-.088-.829-.306-1.658-.306-1.047 0-1.876.568-1.876 1.484 0 .785.48 1.396 1.44 1.396zM70.473 5.698c0-.218.174-.436.436-.436H72a.47.47 0 0 1 .436.436v12.83a.47.47 0 0 1-.436.436h-1.09a.437.437 0 0 1-.437-.437V5.698zM75.273 5.698c0-.218.174-.436.436-.436H76.8a.47.47 0 0 1 .436.436v12.83a.47.47 0 0 1-.436.436h-1.09a.437.437 0 0 1-.437-.437V5.698zM84.087 9.713c1.397 0 2.444.523 3.273 1.57.175.219.13.48-.087.655l-.698.655c-.262.218-.437.043-.568-.088-.392-.436-1.134-.916-1.876-.916-1.527 0-2.75 1.266-2.75 2.836 0 1.615 1.179 2.88 2.663 2.88 1.178 0 1.658-.654 2.138-1.134.174-.175.393-.175.61-.044l.612.48c.218.175.305.393.174.655-.742 1.134-1.963 1.876-3.534 1.876-2.531 0-4.626-2.007-4.626-4.713.044-2.618 2.182-4.712 4.67-4.712zM92.553 13.247c.916 0 1.832.262 1.832.262.044-1.44-.305-2.05-1.44-2.05-1.047 0-2.05.305-2.53.436-.262.043-.437-.131-.524-.393l-.175-.742c-.043-.305.088-.436.306-.524.174-.043 1.44-.523 3.098-.523 2.88 0 3.142 1.745 3.142 3.97v4.8a.47.47 0 0 1-.437.437h-.654c-.175 0-.262-.087-.35-.305l-.217-.611a3.886 3.886 0 0 1-2.793 1.134c-1.702 0-2.924-1.134-2.924-3.01.044-1.615 1.353-2.88 3.666-2.88zm-.306 4.32c.917 0 1.833-.654 2.095-1.09v-1.484c-.131-.088-.83-.306-1.658-.306-1.048 0-1.877.568-1.877 1.484.044.785.524 1.396 1.44 1.396zM98.575 18.265c-.131-.087-.262-.261-.175-.48l.393-.829c.087-.174.349-.261.567-.13.524.305 1.178.654 2.225.654.742 0 1.179-.35 1.179-.873 0-.61-.699-1.003-1.92-1.57-1.397-.612-2.444-1.353-2.444-2.837 0-1.135.785-2.444 2.967-2.444 1.266 0 2.182.393 2.618.655.219.174.306.436.175.654l-.305.611c-.131.262-.393.262-.568.175-.61-.262-1.222-.436-1.92-.436-.785 0-1.134.392-1.134.785 0 .567.654.916 1.527 1.31 1.658.697 2.924 1.308 2.924 2.966 0 1.397-1.222 2.619-3.23 2.619-1.352.087-2.356-.48-2.88-.83zM110.793 9.713c2.356 0 4.102 1.745 4.102 4.145 0 .175 0 .48-.044.611 0 .218-.218.393-.393.393h-6.24c0 1.222 1.135 2.443 2.706 2.443 1.047 0 1.658-.392 2.225-.741.175-.131.35-.175.524.043l.523.83c.175.174.219.348-.043.61-.655.568-1.833 1.135-3.36 1.135-2.75 0-4.495-2.138-4.495-4.713 0-2.574 1.746-4.756 4.495-4.756zm2.182 3.709c-.044-1.091-.917-2.051-2.226-2.051-1.44 0-2.269.916-2.4 2.05h4.626z"/>
    </g>
</svg>
